<svg width="1200" height="630" viewBox="0 0 1200 630" fill="none" xmlns="http://www.w3.org/2000/svg">
<rect width="1200" height="630" fill="#28445C"/>
<g clip-path="url(#clip0_1_2)">
<path d="M32.9997 249.381H64.0589V361.028H32.9997V249.381ZM121.526 249.381H152.735V361.028H121.526V249.381ZM50.4048 290.616H134.43V318.007H50.4048V290.616ZM235.631 363.41C222.327 363.41 210.624 360.978 200.52 356.115C190.518 351.252 182.715 344.454 177.114 335.721C171.612 326.988 168.861 316.816 168.861 305.204C168.861 293.593 171.612 283.421 177.114 274.688C182.715 265.955 190.518 259.157 200.52 254.294C210.624 249.431 222.327 247 235.631 247C249.035 247 260.738 249.431 270.741 254.294C280.745 259.157 288.547 265.955 294.148 274.688C299.75 283.421 302.551 293.593 302.551 305.204C302.551 316.816 299.75 326.988 294.148 335.721C288.547 344.454 280.745 351.252 270.741 356.115C260.738 360.978 249.035 363.41 235.631 363.41ZM235.631 335.87C242.933 335.87 249.235 334.629 254.536 332.149C259.838 329.667 263.889 326.144 266.69 321.579C269.591 317.014 271.041 311.556 271.041 305.204C271.041 298.853 269.591 293.395 266.69 288.83C263.889 284.265 259.838 280.742 254.536 278.261C249.235 275.78 242.933 274.539 235.631 274.539C228.429 274.539 222.177 275.78 216.875 278.261C211.574 280.742 207.473 284.265 204.572 288.83C201.671 293.395 200.22 298.853 200.22 305.204C200.22 311.556 201.671 317.014 204.572 321.579C207.473 326.144 211.574 329.667 216.875 332.149C222.177 334.629 228.429 335.87 235.631 335.87ZM393.486 306.396L396.037 300.59C404.739 300.788 411.891 302.128 417.493 304.609C423.195 306.991 427.446 310.365 430.247 314.732C433.047 318.999 434.448 323.961 434.448 329.618C434.448 335.671 433.047 341.08 430.247 345.844C427.446 350.508 423.245 354.229 417.643 357.008C412.141 359.688 405.239 361.028 396.937 361.028H313.812L322.515 303.716L313.812 249.381H393.936C404.339 249.381 412.442 251.813 418.243 256.676C424.045 261.439 426.946 268.088 426.946 276.623C426.946 281.287 425.845 285.753 423.645 290.021C421.444 294.288 417.893 297.91 412.992 300.887C408.19 303.765 401.688 305.601 393.486 306.396ZM344.571 353.882L332.568 339.443H388.534C393.036 339.443 396.537 338.351 399.037 336.168C401.538 333.984 402.788 330.958 402.788 327.087C402.788 323.217 401.438 320.14 398.737 317.858C396.037 315.476 392.036 314.285 386.734 314.285H340.52V293.147H382.533C386.134 293.147 389.134 292.105 391.535 290.021C394.036 287.837 395.286 284.91 395.286 281.238C395.286 278.261 394.236 275.829 392.135 273.944C390.035 271.959 387.034 270.966 383.133 270.966H332.718L344.571 256.527L352.224 303.716L344.571 353.882ZM511.103 363.41C497.799 363.41 486.095 360.978 475.993 356.115C465.989 351.252 458.187 344.454 452.586 335.721C447.084 326.988 444.333 316.816 444.333 305.204C444.333 293.593 447.084 283.421 452.586 274.688C458.187 265.955 465.989 259.157 475.993 254.294C486.095 249.431 497.799 247 511.103 247C524.507 247 536.21 249.431 546.213 254.294C556.216 259.157 564.019 265.955 569.62 274.688C575.222 283.421 578.023 293.593 578.023 305.204C578.023 316.816 575.222 326.988 569.62 335.721C564.019 344.454 556.216 351.252 546.213 356.115C536.21 360.978 524.507 363.41 511.103 363.41ZM511.103 335.87C518.405 335.87 524.707 334.629 530.009 332.149C535.31 329.667 539.361 326.144 542.162 321.579C545.063 317.014 546.514 311.556 546.514 305.204C546.514 298.853 545.063 293.395 542.162 288.83C539.361 284.265 535.31 280.742 530.009 278.261C524.707 275.78 518.405 274.539 511.103 274.539C503.901 274.539 497.649 275.78 492.348 278.261C487.046 280.742 482.944 284.265 480.044 288.83C477.143 293.395 475.693 298.853 475.693 305.204C475.693 311.556 477.143 317.014 480.044 321.579C482.944 326.144 487.046 329.667 492.348 332.149C497.649 334.629 503.901 335.87 511.103 335.87ZM608.707 249.381H719.139V361.028H687.928V262.779L702.036 276.772H626.112L639.167 266.5C639.968 273.05 640.518 279.352 640.817 285.406C641.116 291.36 641.265 297.017 641.265 302.376C641.265 316.667 639.968 328.327 637.368 337.359C634.767 346.29 630.663 352.84 625.061 357.008C619.46 361.177 612.208 363.261 603.305 363.261C599.404 363.261 595.553 362.863 591.752 362.07C588.051 361.276 584.649 360.085 581.549 358.497V332.893C585.95 334.58 590.001 335.424 593.702 335.424C600.204 335.424 604.856 332.496 607.656 326.641C610.557 320.785 612.008 311.208 612.008 297.91C612.008 291.46 611.708 284.215 611.107 276.176C610.607 268.138 609.807 259.206 608.707 249.381ZM798.961 363.41C787.161 363.41 776.556 361.425 767.153 357.455C757.851 353.485 750.301 347.928 744.497 340.783C738.692 333.637 735.094 325.35 733.695 315.923H764.6C765.503 320.488 767.452 324.408 770.453 327.683C773.454 330.958 777.357 333.488 782.157 335.275C786.957 336.961 792.463 337.805 798.662 337.805C806.164 337.805 812.567 336.515 817.869 333.935C823.171 331.354 827.218 327.633 830.022 322.77C832.921 317.907 834.374 312.052 834.374 305.204C834.374 298.357 832.921 292.502 830.022 287.639C827.218 282.776 823.171 279.054 817.869 276.474C812.567 273.894 806.164 272.604 798.662 272.604C792.463 272.604 786.957 273.497 782.157 275.283C777.459 276.97 773.603 279.451 770.602 282.726C767.601 285.902 765.605 289.822 764.6 294.486H733.695C735.094 284.959 738.692 276.673 744.497 269.627C750.301 262.481 757.851 256.924 767.153 252.954C776.556 248.984 787.161 247 798.961 247C812.166 247 823.721 249.431 833.621 254.294C843.526 259.157 851.225 265.955 856.731 274.688C862.332 283.421 865.13 293.593 865.13 305.204C865.13 316.816 862.332 326.988 856.731 335.721C851.225 344.454 843.526 351.252 833.621 356.115C823.721 360.978 812.166 363.41 798.961 363.41ZM848.326 315.476H780.059V294.933H848.326V315.476ZM881.246 249.381H912.307V361.028H881.246V249.381ZM969.772 249.381H1000.98V361.028H969.772V249.381ZM898.654 290.616H982.679V318.007H898.654V290.616ZM1013.97 383.506V333.786H1038.28L1048.18 334.084H1126.2L1134 333.786H1166.71V383.506H1137.61V361.028H1043.08V383.506H1013.97ZM1037.38 249.381H1147.36V352.394H1116.15V262.332L1130.25 276.325H1053.88L1066.79 266.054C1067.59 270.619 1068.04 275.035 1068.14 279.303C1068.34 283.57 1068.44 287.639 1068.44 291.509C1068.44 303.12 1067.38 312.896 1065.29 320.835C1063.28 328.774 1060.24 334.778 1056.13 338.847C1052.13 342.916 1047.08 344.951 1040.97 344.951L1027.93 334.233C1031.92 329.568 1034.88 323.217 1036.78 315.178C1038.68 307.04 1039.63 297.017 1039.63 285.108C1039.63 279.65 1039.43 273.944 1039.03 267.989C1038.63 262.035 1038.08 255.832 1037.38 249.381Z" fill="white"/>
</g>
<defs>
<clipPath id="clip0_1_2">
<rect width="1134" height="137" fill="white" transform="translate(33 247)"/>
</clipPath>
</defs>
</svg>
